<svg xmlns="http://www.w3.org/2000/svg" viewBox="0 0 1387 887"><defs><style>.cls-1{fill:#060d27;opacity:0.9;}.cls-1,.cls-2{stroke:#1a439a;stroke-miterlimit:10;}.cls-2{fill:none;}.cls-3{fill:#31bdeb;}.cls-4{fill:#179bc7;}.cls-5{fill:#138ab4;}.cls-6{fill:#0e78a1;}.cls-7{fill:#05678e;}.cls-8{fill:#01557a;}.cls-9{fill:#004368;}</style></defs><title>资源 1</title><g id="图层_2" data-name="图层 2"><g id="图层_1-2" data-name="图层 1"><polygon class="cls-1" points="0.5 35 22.5 9.63 140.13 9.63 147.25 0.5 204.5 0.5 209.42 6.08 1382.44 6.08 1386.5 9.5 1386.5 860.5 1364.47 886.5 22.38 886.5 0.5 861.44 0.5 35"/><polyline class="cls-2" points="14.88 19.25 86.75 19.25 92.56 23.25 148.63 23.25 155.25 19.04 276.44 19.04 283.44 15.06 338.48 15.06 345.46 19.16 1366.46 19.16 1378.82 31.51 1378.82 58.51 1385.99 65.45"/><polyline class="cls-2" points="0.96 816.38 6.63 820.5 6.63 849.42 17.54 861.13 121.5 861.13 127.44 865.19 183.44 865.19 190.47 861 1385.58 861"/><polygon class="cls-3" points="20.58 878.83 1366.46 878.83 1359.54 883.46 27.45 883.46 20.58 878.83"/><polygon class="cls-4" points="20.5 24.5 27.5 24.5 23.5 29.5 16.5 29.5 20.5 24.5"/><polygon class="cls-5" points="29.5 24.5 36.5 24.5 32.5 29.5 25.5 29.5 29.5 24.5"/><polygon class="cls-6" points="38.5 24.5 45.5 24.5 41.5 29.5 34.5 29.5 38.5 24.5"/><polygon class="cls-7" points="47.5 24.5 54.5 24.5 50.5 29.5 43.5 29.5 47.5 24.5"/><polygon class="cls-8" points="56.5 24.5 63.5 24.5 59.5 29.5 52.5 29.5 56.5 24.5"/><polygon class="cls-9" points="65.5 24.5 72.5 24.5 68.5 29.5 61.5 29.5 65.5 24.5"/><polygon class="cls-3" points="163.5 7.5 148.5 7.5 152.5 11.5 167.5 11.5 163.5 7.5"/><rect class="cls-3" x="353.49" y="9.51" width="5.01" height="5.01"/><polygon class="cls-3" points="182.5 7.5 167.5 7.5 171.5 11.5 186.5 11.5 182.5 7.5"/><polygon class="cls-3" points="201.5 7.5 186.5 7.5 190.5 11.5 205.5 11.5 201.5 7.5"/><rect class="cls-3" x="361.49" y="9.51" width="5.01" height="5.01"/><rect class="cls-3" x="369.49" y="9.51" width="5.01" height="5.01"/><rect class="cls-3" x="377.49" y="9.51" width="5.01" height="5.01"/><rect class="cls-3" x="385.49" y="9.51" width="5.01" height="5.01"/><rect class="cls-3" x="393.49" y="9.51" width="5.01" height="5.01"/><rect class="cls-3" x="401.49" y="9.51" width="5.01" height="5.01"/><rect class="cls-3" x="409.49" y="9.51" width="5.01" height="5.01"/><rect class="cls-3" x="417.49" y="9.51" width="5.01" height="5.01"/><rect class="cls-3" x="425.49" y="9.51" width="5.01" height="5.01"/><rect class="cls-3" x="433.49" y="9.51" width="5.01" height="5.01"/><rect class="cls-3" x="441.49" y="9.51" width="5.01" height="5.01"/></g></g></svg>