<svg id="组_28" data-name="组 28" xmlns="http://www.w3.org/2000/svg" xmlns:xlink="http://www.w3.org/1999/xlink" width="405.84" height="37.531" viewBox="0 0 405.84 37.531">
  <metadata><?xpacket begin="﻿" id="W5M0MpCehiHzreSzNTczkc9d"?>
<x:xmpmeta xmlns:x="adobe:ns:meta/" x:xmptk="Adobe XMP Core 5.6-c138 79.159824, 2016/09/14-01:09:01        ">
   <rdf:RDF xmlns:rdf="http://www.w3.org/1999/02/22-rdf-syntax-ns#">
      <rdf:Description rdf:about=""/>
   </rdf:RDF>
</x:xmpmeta>
                                                                                                    
                                                                                                    
                                                                                                    
                                                                                                    
                                                                                                    
                                                                                                    
                                                                                                    
                                                                                                    
                                                                                                    
                                                                                                    
                                                                                                    
                                                                                                    
                                                                                                    
                                                                                                    
                                                                                                    
                                                                                                    
                                                                                                    
                                                                                                    
                                                                                                    
                                                                                                    
                           
<?xpacket end="w"?></metadata>
<defs>
    <style>
      .cls-1, .cls-2 {
        fill: #f2f2f2;
        stroke-linejoin: round;
      }

      .cls-1 {
        stroke: #2858b7;
        filter: url(#filter);
      }

      .cls-1, .cls-2, .cls-4 {
        stroke-width: 2px;
      }

      .cls-1, .cls-2, .cls-3, .cls-4 {
        fill-rule: evenodd;
      }

      .cls-2, .cls-4 {
        stroke: #2859b7;
      }

      .cls-2 {
        filter: url(#filter-2);
      }

      .cls-3 {
        fill: #2859b7;
      }

      .cls-4 {
        fill: #fff;
      }
    </style>
    <filter id="filter" x="1499.16" y="232.406" width="18.09" height="15.719" filterUnits="userSpaceOnUse">
      <feGaussianBlur result="blur" stdDeviation="5.333" in="SourceAlpha"/>
      <feFlood result="flood" flood-color="#0ab7ff"/>
      <feComposite result="composite-2" operator="out" in2="blur"/>
      <feComposite result="composite" operator="in" in2="SourceAlpha"/>
      <feBlend result="blend" in2="SourceGraphic"/>
    </filter>
    <filter id="filter-2" x="1884.88" y="232.344" width="18.12" height="15.875" filterUnits="userSpaceOnUse">
      <feGaussianBlur result="blur" stdDeviation="5.333" in="SourceAlpha"/>
      <feFlood result="flood" flood-color="#0ab7ff"/>
      <feComposite result="composite-2" operator="out" in2="blur"/>
      <feComposite result="composite" operator="in" in2="SourceAlpha"/>
      <feBlend result="blend" in2="SourceGraphic"/>
    </filter>
  </defs>
  <g transform="translate(-1498.16 -220)" style="fill: #f2f2f2; filter: url(#filter)">
    <path id="多边形_1" data-name="多边形 1" class="cls-1" d="M1499.15,240.273l18.11-7.854v15.709Z" style="stroke: inherit; filter: none; fill: inherit"/>
  </g>
  <use transform="translate(-1498.16 -220)" xlink:href="#多边形_1" style="stroke: #2858b7; filter: none; fill: none"/>
  <g transform="translate(-1498.16 -220)" style="fill: #f2f2f2; filter: url(#filter-2)">
    <path id="多边形_1_拷贝" data-name="多边形 1 拷贝" class="cls-2" d="M1903,240.273l-18.12-7.943v15.886Z" style="stroke: inherit; filter: none; fill: inherit"/>
  </g>
  <use transform="translate(-1498.16 -220)" xlink:href="#多边形_1_拷贝" style="stroke: #2859b7; filter: none; fill: none"/>
  <path id="矩形_1" data-name="矩形 1" class="cls-3" d="M1517.26,238.406h367.61v3H1517.26v-3Z" transform="translate(-1498.16 -220)"/>
  <path id="矩形_1_拷贝" data-name="矩形 1 拷贝" class="cls-3" d="M1524.06,233.1h2.26v5.308h-2.26V233.1Z" transform="translate(-1498.16 -220)"/>
  <path id="矩形_1_拷贝_2" data-name="矩形 1 拷贝 2" class="cls-3" d="M1538.42,233.1h2.26v5.308h-2.26V233.1Z" transform="translate(-1498.16 -220)"/>
  <path id="矩形_1_拷贝_3" data-name="矩形 1 拷贝 3" class="cls-3" d="M1553.51,233.1h2.26v5.308h-2.26V233.1Z" transform="translate(-1498.16 -220)"/>
  <path id="矩形_1_拷贝_4" data-name="矩形 1 拷贝 4" class="cls-3" d="M1567.84,233.1h2.26v5.308h-2.26V233.1Z" transform="translate(-1498.16 -220)"/>
  <path id="矩形_1_拷贝_5" data-name="矩形 1 拷贝 5" class="cls-3" d="M1582.94,233.1h2.28v5.308h-2.28V233.1Z" transform="translate(-1498.16 -220)"/>
  <path id="矩形_1_拷贝_6" data-name="矩形 1 拷贝 6" class="cls-3" d="M1597.29,233.1h2.26v5.308h-2.26V233.1Z" transform="translate(-1498.16 -220)"/>
  <path id="矩形_1_拷贝_7" data-name="矩形 1 拷贝 7" class="cls-3" d="M1612.39,233.1h2.25v5.308h-2.25V233.1Z" transform="translate(-1498.16 -220)"/>
  <path id="矩形_1_拷贝_8" data-name="矩形 1 拷贝 8" class="cls-3" d="M1626.74,233.1H1629v5.308h-2.26V233.1Z" transform="translate(-1498.16 -220)"/>
  <path id="矩形_1_拷贝_14" data-name="矩形 1 拷贝 14" class="cls-3" d="M1803.36,233.1h2.28v5.308h-2.28V233.1Z" transform="translate(-1498.16 -220)"/>
  <path id="矩形_1_拷贝_14-2" data-name="矩形 1 拷贝 14" class="cls-3" d="M1817.71,233.1h2.26v5.308h-2.26V233.1Z" transform="translate(-1498.16 -220)"/>
  <path id="矩形_1_拷贝_14-3" data-name="矩形 1 拷贝 14" class="cls-3" d="M1832.81,233.1h2.25v5.308h-2.25V233.1Z" transform="translate(-1498.16 -220)"/>
  <path id="矩形_1_拷贝_14-4" data-name="矩形 1 拷贝 14" class="cls-3" d="M1847.16,233.1h2.26v5.308h-2.26V233.1Z" transform="translate(-1498.16 -220)"/>
  <path id="矩形_1_拷贝_14-5" data-name="矩形 1 拷贝 14" class="cls-3" d="M1862.26,233.1h2.25v5.308h-2.25V233.1Z" transform="translate(-1498.16 -220)"/>
  <path id="矩形_1_拷贝_14-6" data-name="矩形 1 拷贝 14" class="cls-3" d="M1876.58,233.1h2.26v5.308h-2.26V233.1Z" transform="translate(-1498.16 -220)"/>
  <path id="矩形_1_拷贝_10" data-name="矩形 1 拷贝 10" class="cls-3" d="M1656.16,233.1h2.26v5.308h-2.26V233.1Z" transform="translate(-1498.16 -220)"/>
  <path id="矩形_1_拷贝_10-2" data-name="矩形 1 拷贝 10" class="cls-3" d="M1671.26,233.1h2.26v5.308h-2.26V233.1Z" transform="translate(-1498.16 -220)"/>
  <path id="矩形_1_拷贝_10-3" data-name="矩形 1 拷贝 10" class="cls-3" d="M1685.61,233.1h2.26v5.308h-2.26V233.1Z" transform="translate(-1498.16 -220)"/>
  <path id="矩形_1_拷贝_12" data-name="矩形 1 拷贝 12" class="cls-3" d="M1715.03,233.1h2.29v5.308h-2.29V233.1Z" transform="translate(-1498.16 -220)"/>
  <path id="矩形_1_拷贝_12-2" data-name="矩形 1 拷贝 12" class="cls-3" d="M1729.39,233.1h2.26v5.308h-2.26V233.1Z" transform="translate(-1498.16 -220)"/>
  <path id="矩形_1_拷贝_12-3" data-name="矩形 1 拷贝 12" class="cls-3" d="M1744.48,233.1h2.26v5.308h-2.26V233.1Z" transform="translate(-1498.16 -220)"/>
  <path id="矩形_1_拷贝_9" data-name="矩形 1 拷贝 9" class="cls-3" d="M1641.84,227.791h2.26v10.615h-2.26V227.791Z" transform="translate(-1498.16 -220)"/>
  <path id="矩形_1_拷贝_11" data-name="矩形 1 拷贝 11" class="cls-3" d="M1700.71,227.791h2.26v10.615h-2.26V227.791Z" transform="translate(-1498.16 -220)"/>
  <path id="矩形_1_拷贝_13" data-name="矩形 1 拷贝 13" class="cls-3" d="M1773.93,233.1h2.26v5.308h-2.26V233.1Z" transform="translate(-1498.16 -220)"/>
  <path id="矩形_1_拷贝_16" data-name="矩形 1 拷贝 16" class="cls-3" d="M1758.84,233.1h2.26v5.308h-2.26V233.1Z" transform="translate(-1498.16 -220)"/>
  <path id="矩形_1_拷贝_13-2" data-name="矩形 1 拷贝 13" class="cls-3" d="M1788.26,227.791h2.26v10.615h-2.26V227.791Z" transform="translate(-1498.16 -220)"/>
  <path id="圆角矩形_1" data-name="圆角矩形 1" class="cls-4" d="M1752,221h10.61a3,3,0,0,1,3,3v29.525a3,3,0,0,1-3,3H1752a3,3,0,0,1-3-3V224A3,3,0,0,1,1752,221Z" transform="translate(-1498.16 -220)"/>
  <path id="矩形_1_拷贝_15" data-name="矩形 1 拷贝 15" class="cls-3" d="M1755.81,229.3h3.03v18.919h-3.03V229.3Z" transform="translate(-1498.16 -220)"/>
</svg>
