<svg xmlns="http://www.w3.org/2000/svg" viewBox="0 0 1218.31 941.94"><defs><style>.cls-1{fill:none;stroke:#1a439a;stroke-miterlimit:10;}.cls-2{fill:#31bdeb;}.cls-3{fill:#0f79a1;}.cls-4{fill:#179cc7;}.cls-5{fill:#158bb4;}.cls-6{fill:#107aa2;}.cls-7{fill:#06698f;}.cls-8{fill:#02567b;}.cls-9{fill:#004468;}</style></defs><title>资源 6</title><g id="图层_2" data-name="图层 2"><g id="图层_1-2" data-name="图层 1"><polygon class="cls-1" points="23.13 14.69 140.96 14.69 148.79 5.52 204.13 5.52 210.31 10.69 969.19 10.69 976.31 0.5 1032.13 0.5 1038.31 5.69 1213 4.56 1217.81 9 1217.81 914.94 1195.19 941.44 23.13 941.44 0.5 915.06 0.5 40.63 14.54 24.52 23.13 14.69"/><polyline class="cls-1" points="15.38 24.81 87.13 24.81 94.38 28.81 148.75 28.81 156.25 24.81 1027.19 24.81 1034.19 20.45 1089.17 20.44 1096.19 24.52 1198.19 24.52 1210.75 37.03 1210.75 62.97 1217.81 70.03"/><polygon class="cls-2" points="21.29 933.1 26.38 938.1 642.21 938.1 648.25 933.1 21.29 933.1"/><polygon class="cls-3" points="149.31 13.06 154.25 17.06 168.25 17.06 163.31 13.06 149.31 13.06"/><polygon class="cls-3" points="168.34 13.06 173.28 17.06 187.28 17.06 182.34 13.06 168.34 13.06"/><polygon class="cls-3" points="187.38 13.06 192.32 17.06 206.32 17.06 201.38 13.06 187.38 13.06"/><polygon class="cls-3" points="1031.32 11.06 1026.38 15.06 1012.38 15.06 1017.32 11.06 1031.32 11.06"/><polygon class="cls-3" points="1012.29 11.06 1007.35 15.06 993.35 15.06 998.29 11.06 1012.29 11.06"/><polygon class="cls-3" points="993.25 11.06 988.31 15.06 974.31 15.06 979.25 11.06 993.25 11.06"/><rect class="cls-2" x="1103.22" y="13.04" width="5.05" height="4.94"/><rect class="cls-2" x="1111.22" y="13.04" width="5.05" height="4.94"/><rect class="cls-2" x="1119.22" y="13.04" width="5.05" height="4.94"/><rect class="cls-2" x="1127.22" y="13.04" width="5.05" height="4.94"/><rect class="cls-2" x="1135.22" y="13.04" width="5.05" height="4.94"/><rect class="cls-2" x="1143.22" y="13.04" width="5.05" height="4.94"/><rect class="cls-2" x="1159.22" y="13.04" width="5.05" height="4.94"/><rect class="cls-2" x="1151.22" y="13.04" width="5.05" height="4.94"/><rect class="cls-2" x="1167.22" y="13.04" width="5.05" height="4.94"/><rect class="cls-2" x="1175.22" y="13.04" width="5.05" height="4.94"/><rect class="cls-2" x="1183.22" y="13.04" width="5.05" height="4.94"/><rect class="cls-2" x="1191.22" y="13.04" width="5.05" height="4.94"/><polygon class="cls-4" points="21.28 30.06 28.28 30.06 24.22 35.06 17.22 35.06 21.28 30.06"/><polygon class="cls-5" points="30.28 30.06 37.28 30.06 33.22 35.06 26.22 35.06 30.28 30.06"/><polygon class="cls-6" points="39.28 30.06 46.28 30.06 42.22 35.06 35.22 35.06 39.28 30.06"/><polygon class="cls-7" points="48.28 30.06 55.28 30.06 51.22 35.06 44.22 35.06 48.28 30.06"/><polygon class="cls-8" points="57.28 30.06 64.28 30.06 60.22 35.06 53.22 35.06 57.28 30.06"/><polygon class="cls-9" points="66.28 30.06 73.28 30.06 69.22 35.06 62.22 35.06 66.28 30.06"/></g></g></svg>